<svg width="28" height="24" viewBox="0 0 28 24" fill="none" xmlns="http://www.w3.org/2000/svg">
<path opacity="0.2" d="M27.2314 2.92507C26.247 3.40205 25.1895 3.72432 24.0777 3.86999C25.2248 3.11946 26.083 1.93822 26.4922 0.546662C25.4145 1.24664 24.2349 1.73934 23.0048 2.00336C22.1777 1.03764 21.082 0.397545 19.8881 0.182454C18.6941 -0.032637 17.4686 0.189309 16.4018 0.813834C15.335 1.43836 14.4866 2.43052 13.9883 3.63628C13.4901 4.84204 13.3698 6.19394 13.6462 7.48209C11.4624 7.3622 9.32609 6.74156 7.37585 5.66045C5.4256 4.57934 3.70505 3.06193 2.32585 1.20669C1.85427 2.09618 1.58311 3.12747 1.58311 4.22579C1.58258 5.21453 1.80526 6.18813 2.23139 7.0602C2.65752 7.93228 3.27393 8.67586 4.02592 9.22497C3.15381 9.19463 2.30094 8.93696 1.53831 8.47342V8.55076C1.53822 9.93751 1.97692 11.2816 2.77997 12.3549C3.58302 13.4283 4.70096 14.1648 5.94409 14.4394C5.13506 14.6788 4.28686 14.7141 3.46355 14.5426C3.81429 15.7358 4.4975 16.7792 5.41752 17.5268C6.33755 18.2743 7.44834 18.6886 8.59439 18.7115C6.64891 20.3815 4.24625 21.2873 1.77292 21.2833C1.3348 21.2835 0.897041 21.2555 0.461914 21.1995C2.97249 22.9646 5.89497 23.9013 8.8797 23.8976C18.9834 23.8976 24.5068 14.7475 24.5068 6.81175C24.5068 6.55393 24.5009 6.29353 24.4903 6.0357C25.5647 5.18615 26.4921 4.13413 27.2291 2.92894L27.2314 2.92507Z" fill="#00DDE9"/>
</svg>
